solid Cooled-blade-sketch
   facet normal 0.000000e+000 0.000000e+000 -1.000000e+000
      outer loop
         vertex 7.286905e+001 -2.829479e+001 0.000000e+000
         vertex 7.462507e+001 -2.782427e+001 0.000000e+000
         vertex 8.065790e+001 -3.491636e+001 0.000000e+000
      endloop
   endfacet
   facet normal 0.000000e+000 0.000000e+000 -1.000000e+000
      outer loop
         vertex 8.065790e+001 -3.491636e+001 0.000000e+000
         vertex 7.462507e+001 -2.782427e+001 0.000000e+000
         vertex 8.055024e+001 -3.368580e+001 0.000000e+000
      endloop
   endfacet
   facet normal 0.000000e+000 0.000000e+000 -1.000000e+000
      outer loop
         vertex 8.085843e+001 -1.445677e+001 0.000000e+000
         vertex 8.387777e+001 -1.075464e+001 0.000000e+000
         vertex 8.132896e+001 -1.621279e+001 0.000000e+000
      endloop
   endfacet
   facet normal 0.000000e+000 0.000000e+000 -1.000000e+000
      outer loop
         vertex 8.132896e+001 -1.621279e+001 0.000000e+000
         vertex 8.387777e+001 -1.075464e+001 0.000000e+000
         vertex 8.924956e+001 -1.731858e+001 0.000000e+000
      endloop
   endfacet
   facet normal 0.000000e+000 0.000000e+000 -1.000000e+000
      outer loop
         vertex 8.132896e+001 -1.621279e+001 0.000000e+000
         vertex 8.924956e+001 -1.731858e+001 0.000000e+000
         vertex 8.148740e+001 -1.802384e+001 0.000000e+000
      endloop
   endfacet
   facet normal 0.000000e+000 0.000000e+000 -1.000000e+000
      outer loop
         vertex 6.749094e+001 -8.223404e+000 0.000000e+000
         vertex 6.584330e+001 -8.991709e+000 0.000000e+000
         vertex 5.874944e+001 9.612243e+000 0.000000e+000
      endloop
   endfacet
   facet normal 0.000000e+000 0.000000e+000 -1.000000e+000
      outer loop
         vertex 5.874944e+001 9.612243e+000 0.000000e+000
         vertex 6.584330e+001 -8.991709e+000 0.000000e+000
         vertex 6.435410e+001 -1.003445e+001 0.000000e+000
      endloop
   endfacet
   facet normal 0.000000e+000 0.000000e+000 -1.000000e+000
      outer loop
         vertex 6.435410e+001 -1.003445e+001 0.000000e+000
         vertex 6.306861e+001 -1.131995e+001 0.000000e+000
         vertex 5.874944e+001 9.612243e+000 0.000000e+000
      endloop
   endfacet
   facet normal 0.000000e+000 0.000000e+000 -1.000000e+000
      outer loop
         vertex 5.874944e+001 9.612243e+000 0.000000e+000
         vertex 6.306861e+001 -1.131995e+001 0.000000e+000
         vertex 6.202588e+001 -1.280914e+001 0.000000e+000
      endloop
   endfacet
   facet normal 0.000000e+000 0.000000e+000 -1.000000e+000
      outer loop
         vertex 5.874944e+001 9.612243e+000 0.000000e+000
         vertex 6.202588e+001 -1.280914e+001 0.000000e+000
         vertex 6.125757e+001 -1.445677e+001 0.000000e+000
      endloop
   endfacet
   facet normal 0.000000e+000 0.000000e+000 -1.000000e+000
      outer loop
         vertex 9.582072e+001 -3.234981e+001 0.000000e+000
         vertex 9.950242e+001 -3.201353e+001 0.000000e+000
         vertex 9.593761e+001 -3.368580e+001 0.000000e+000
      endloop
   endfacet
   facet normal 0.000000e+000 0.000000e+000 -1.000000e+000
      outer loop
         vertex 9.593761e+001 -3.368580e+001 0.000000e+000
         vertex 9.950242e+001 -3.201353e+001 0.000000e+000
         vertex 1.012708e+002 -3.491636e+001 0.000000e+000
      endloop
   endfacet
   facet normal 0.000000e+000 0.000000e+000 -1.000000e+000
      outer loop
         vertex 9.593761e+001 -3.368580e+001 0.000000e+000
         vertex 1.012708e+002 -3.491636e+001 0.000000e+000
         vertex 9.582995e+001 -3.491636e+001 0.000000e+000
      endloop
   endfacet
   facet normal 0.000000e+000 0.000000e+000 -1.000000e+000
      outer loop
         vertex 9.413763e+001 -2.874040e+001 0.000000e+000
         vertex 9.427774e+001 -2.417330e+001 0.000000e+000
         vertex 9.490685e+001 -2.983896e+001 0.000000e+000
      endloop
   endfacet
   facet normal 0.000000e+000 0.000000e+000 -1.000000e+000
      outer loop
         vertex 9.490685e+001 -2.983896e+001 0.000000e+000
         vertex 9.427774e+001 -2.417330e+001 0.000000e+000
         vertex 9.950242e+001 -3.201353e+001 0.000000e+000
      endloop
   endfacet
   facet normal 0.000000e+000 0.000000e+000 -1.000000e+000
      outer loop
         vertex 9.490685e+001 -2.983896e+001 0.000000e+000
         vertex 9.950242e+001 -3.201353e+001 0.000000e+000
         vertex 9.547362e+001 -3.105441e+001 0.000000e+000
      endloop
   endfacet
   facet normal 0.000000e+000 0.000000e+000 -1.000000e+000
      outer loop
         vertex 9.547362e+001 -3.105441e+001 0.000000e+000
         vertex 9.950242e+001 -3.201353e+001 0.000000e+000
         vertex 9.582072e+001 -3.234981e+001 0.000000e+000
      endloop
   endfacet
   facet normal 0.000000e+000 0.000000e+000 -1.000000e+000
      outer loop
         vertex 6.125757e+001 -1.445677e+001 0.000000e+000
         vertex 6.078704e+001 -1.621279e+001 0.000000e+000
         vertex 5.874944e+001 9.612243e+000 0.000000e+000
      endloop
   endfacet
   facet normal 0.000000e+000 0.000000e+000 -1.000000e+000
      outer loop
         vertex 5.874944e+001 9.612243e+000 0.000000e+000
         vertex 6.078704e+001 -1.621279e+001 0.000000e+000
         vertex 6.062860e+001 -1.802384e+001 0.000000e+000
      endloop
   endfacet
   facet normal 0.000000e+000 0.000000e+000 -1.000000e+000
      outer loop
         vertex 5.874944e+001 9.612243e+000 0.000000e+000
         vertex 6.062860e+001 -1.802384e+001 0.000000e+000
         vertex 5.874944e+001 -2.833689e+001 0.000000e+000
      endloop
   endfacet
   facet normal 0.000000e+000 0.000000e+000 -1.000000e+000
      outer loop
         vertex 5.874944e+001 -2.833689e+001 0.000000e+000
         vertex 6.062860e+001 -1.802384e+001 0.000000e+000
         vertex 6.078704e+001 -1.983488e+001 0.000000e+000
      endloop
   endfacet
   facet normal 0.000000e+000 0.000000e+000 -1.000000e+000
      outer loop
         vertex 5.874944e+001 -2.833689e+001 0.000000e+000
         vertex 6.078704e+001 -1.983488e+001 0.000000e+000
         vertex 6.125757e+001 -2.159090e+001 0.000000e+000
      endloop
   endfacet
   facet normal 0.000000e+000 0.000000e+000 -1.000000e+000
      outer loop
         vertex 6.899899e+001 3.317740e+000 0.000000e+000
         vertex 7.385049e+001 -6.147127e-001 0.000000e+000
         vertex 7.286905e+001 -7.752880e+000 0.000000e+000
      endloop
   endfacet
   facet normal 0.000000e+000 0.000000e+000 -1.000000e+000
      outer loop
         vertex 9.413763e+001 -2.874040e+001 0.000000e+000
         vertex 9.318933e+001 -2.779210e+001 0.000000e+000
         vertex 9.427774e+001 -2.417330e+001 0.000000e+000
      endloop
   endfacet
   facet normal 0.000000e+000 0.000000e+000 -1.000000e+000
      outer loop
         vertex 9.427774e+001 -2.417330e+001 0.000000e+000
         vertex 9.318933e+001 -2.779210e+001 0.000000e+000
         vertex 9.209077e+001 -2.702288e+001 0.000000e+000
      endloop
   endfacet
   facet normal 0.000000e+000 0.000000e+000 -1.000000e+000
      outer loop
         vertex 9.427774e+001 -2.417330e+001 0.000000e+000
         vertex 9.209077e+001 -2.702288e+001 0.000000e+000
         vertex 8.924956e+001 -1.731858e+001 0.000000e+000
      endloop
   endfacet
   facet normal 0.000000e+000 0.000000e+000 -1.000000e+000
      outer loop
         vertex 8.924956e+001 -1.731858e+001 0.000000e+000
         vertex 9.209077e+001 -2.702288e+001 0.000000e+000
         vertex 9.087532e+001 -2.645610e+001 0.000000e+000
      endloop
   endfacet
   facet normal 0.000000e+000 0.000000e+000 -1.000000e+000
      outer loop
         vertex 9.087532e+001 -2.645610e+001 0.000000e+000
         vertex 8.957992e+001 -2.610900e+001 0.000000e+000
         vertex 8.924956e+001 -1.731858e+001 0.000000e+000
      endloop
   endfacet
   facet normal 0.000000e+000 0.000000e+000 -1.000000e+000
      outer loop
         vertex 8.924956e+001 -1.731858e+001 0.000000e+000
         vertex 8.957992e+001 -2.610900e+001 0.000000e+000
         vertex 8.824393e+001 -2.599212e+001 0.000000e+000
      endloop
   endfacet
   facet normal 0.000000e+000 0.000000e+000 -1.000000e+000
      outer loop
         vertex 8.924956e+001 -1.731858e+001 0.000000e+000
         vertex 8.824393e+001 -2.599212e+001 0.000000e+000
         vertex 8.148740e+001 -1.802384e+001 0.000000e+000
      endloop
   endfacet
   facet normal 0.000000e+000 0.000000e+000 -1.000000e+000
      outer loop
         vertex 8.148740e+001 -1.802384e+001 0.000000e+000
         vertex 8.824393e+001 -2.599212e+001 0.000000e+000
         vertex 8.690793e+001 -2.610900e+001 0.000000e+000
      endloop
   endfacet
   facet normal 0.000000e+000 0.000000e+000 -1.000000e+000
      outer loop
         vertex 8.148740e+001 -1.802384e+001 0.000000e+000
         vertex 8.690793e+001 -2.610900e+001 0.000000e+000
         vertex 8.561253e+001 -2.645610e+001 0.000000e+000
      endloop
   endfacet
   facet normal 0.000000e+000 0.000000e+000 -1.000000e+000
      outer loop
         vertex 6.587133e+001 -3.241685e+001 0.000000e+000
         vertex 6.749094e+001 -2.782427e+001 0.000000e+000
         vertex 6.951105e+001 -3.491636e+001 0.000000e+000
      endloop
   endfacet
   facet normal 0.000000e+000 0.000000e+000 -1.000000e+000
      outer loop
         vertex 6.951105e+001 -3.491636e+001 0.000000e+000
         vertex 6.749094e+001 -2.782427e+001 0.000000e+000
         vertex 6.924696e+001 -2.829479e+001 0.000000e+000
      endloop
   endfacet
   facet normal 0.000000e+000 0.000000e+000 -1.000000e+000
      outer loop
         vertex 6.951105e+001 -3.491636e+001 0.000000e+000
         vertex 6.924696e+001 -2.829479e+001 0.000000e+000
         vertex 7.105800e+001 -2.845324e+001 0.000000e+000
      endloop
   endfacet
   facet normal 0.000000e+000 0.000000e+000 -1.000000e+000
      outer loop
         vertex 8.329852e+001 -2.779210e+001 0.000000e+000
         vertex 8.235022e+001 -2.874040e+001 0.000000e+000
         vertex 7.776189e+001 -2.601322e+001 0.000000e+000
      endloop
   endfacet
   facet normal 0.000000e+000 0.000000e+000 -1.000000e+000
      outer loop
         vertex 7.776189e+001 -2.601322e+001 0.000000e+000
         vertex 8.235022e+001 -2.874040e+001 0.000000e+000
         vertex 8.158099e+001 -2.983896e+001 0.000000e+000
      endloop
   endfacet
   facet normal 0.000000e+000 0.000000e+000 -1.000000e+000
      outer loop
         vertex 7.776189e+001 -2.601322e+001 0.000000e+000
         vertex 8.158099e+001 -2.983896e+001 0.000000e+000
         vertex 7.627271e+001 -2.705596e+001 0.000000e+000
      endloop
   endfacet
   facet normal 0.000000e+000 0.000000e+000 -1.000000e+000
      outer loop
         vertex 7.627271e+001 -2.705596e+001 0.000000e+000
         vertex 8.158099e+001 -2.983896e+001 0.000000e+000
         vertex 8.101422e+001 -3.105441e+001 0.000000e+000
      endloop
   endfacet
   facet normal 0.000000e+000 0.000000e+000 -1.000000e+000
      outer loop
         vertex 7.627271e+001 -2.705596e+001 0.000000e+000
         vertex 8.101422e+001 -3.105441e+001 0.000000e+000
         vertex 7.462507e+001 -2.782427e+001 0.000000e+000
      endloop
   endfacet
   facet normal 0.000000e+000 0.000000e+000 -1.000000e+000
      outer loop
         vertex 7.462507e+001 -2.782427e+001 0.000000e+000
         vertex 8.101422e+001 -3.105441e+001 0.000000e+000
         vertex 8.066712e+001 -3.234981e+001 0.000000e+000
      endloop
   endfacet
   facet normal 0.000000e+000 0.000000e+000 -1.000000e+000
      outer loop
         vertex 7.462507e+001 -2.782427e+001 0.000000e+000
         vertex 8.066712e+001 -3.234981e+001 0.000000e+000
         vertex 8.055024e+001 -3.368580e+001 0.000000e+000
      endloop
   endfacet
   facet normal 0.000000e+000 0.000000e+000 -1.000000e+000
      outer loop
         vertex 8.085843e+001 -1.445677e+001 0.000000e+000
         vertex 8.009013e+001 -1.280914e+001 0.000000e+000
         vertex 8.387777e+001 -1.075464e+001 0.000000e+000
      endloop
   endfacet
   facet normal 0.000000e+000 0.000000e+000 -1.000000e+000
      outer loop
         vertex 8.387777e+001 -1.075464e+001 0.000000e+000
         vertex 8.009013e+001 -1.280914e+001 0.000000e+000
         vertex 7.904739e+001 -1.131995e+001 0.000000e+000
      endloop
   endfacet
   facet normal 0.000000e+000 0.000000e+000 -1.000000e+000
      outer loop
         vertex 8.387777e+001 -1.075464e+001 0.000000e+000
         vertex 7.904739e+001 -1.131995e+001 0.000000e+000
         vertex 7.883279e+001 -5.309952e+000 0.000000e+000
      endloop
   endfacet
   facet normal 0.000000e+000 0.000000e+000 -1.000000e+000
      outer loop
         vertex 7.904739e+001 -1.131995e+001 0.000000e+000
         vertex 7.776189e+001 -1.003445e+001 0.000000e+000
         vertex 7.883279e+001 -5.309952e+000 0.000000e+000
      endloop
   endfacet
   facet normal 0.000000e+000 0.000000e+000 -1.000000e+000
      outer loop
         vertex 7.883279e+001 -5.309952e+000 0.000000e+000
         vertex 7.776189e+001 -1.003445e+001 0.000000e+000
         vertex 7.627271e+001 -8.991709e+000 0.000000e+000
      endloop
   endfacet
   facet normal 0.000000e+000 0.000000e+000 -1.000000e+000
      outer loop
         vertex 7.883279e+001 -5.309952e+000 0.000000e+000
         vertex 7.627271e+001 -8.991709e+000 0.000000e+000
         vertex 7.385049e+001 -6.147127e-001 0.000000e+000
      endloop
   endfacet
   facet normal 0.000000e+000 0.000000e+000 -1.000000e+000
      outer loop
         vertex 7.385049e+001 -6.147127e-001 0.000000e+000
         vertex 7.627271e+001 -8.991709e+000 0.000000e+000
         vertex 7.462507e+001 -8.223404e+000 0.000000e+000
      endloop
   endfacet
   facet normal 0.000000e+000 0.000000e+000 -1.000000e+000
      outer loop
         vertex 7.385049e+001 -6.147127e-001 0.000000e+000
         vertex 7.462507e+001 -8.223404e+000 0.000000e+000
         vertex 7.286905e+001 -7.752880e+000 0.000000e+000
      endloop
   endfacet
   facet normal 0.000000e+000 0.000000e+000 -1.000000e+000
      outer loop
         vertex 7.776189e+001 -2.601322e+001 0.000000e+000
         vertex 7.904739e+001 -2.472773e+001 0.000000e+000
         vertex 8.329852e+001 -2.779210e+001 0.000000e+000
      endloop
   endfacet
   facet normal 0.000000e+000 0.000000e+000 -1.000000e+000
      outer loop
         vertex 8.329852e+001 -2.779210e+001 0.000000e+000
         vertex 7.904739e+001 -2.472773e+001 0.000000e+000
         vertex 8.009013e+001 -2.323854e+001 0.000000e+000
      endloop
   endfacet
   facet normal 0.000000e+000 0.000000e+000 -1.000000e+000
      outer loop
         vertex 8.329852e+001 -2.779210e+001 0.000000e+000
         vertex 8.009013e+001 -2.323854e+001 0.000000e+000
         vertex 8.439709e+001 -2.702288e+001 0.000000e+000
      endloop
   endfacet
   facet normal 0.000000e+000 0.000000e+000 -1.000000e+000
      outer loop
         vertex 8.439709e+001 -2.702288e+001 0.000000e+000
         vertex 8.009013e+001 -2.323854e+001 0.000000e+000
         vertex 8.085843e+001 -2.159090e+001 0.000000e+000
      endloop
   endfacet
   facet normal 0.000000e+000 0.000000e+000 -1.000000e+000
      outer loop
         vertex 8.439709e+001 -2.702288e+001 0.000000e+000
         vertex 8.085843e+001 -2.159090e+001 0.000000e+000
         vertex 8.561253e+001 -2.645610e+001 0.000000e+000
      endloop
   endfacet
   facet normal 0.000000e+000 0.000000e+000 -1.000000e+000
      outer loop
         vertex 8.561253e+001 -2.645610e+001 0.000000e+000
         vertex 8.085843e+001 -2.159090e+001 0.000000e+000
         vertex 8.132896e+001 -1.983488e+001 0.000000e+000
      endloop
   endfacet
   facet normal 0.000000e+000 0.000000e+000 -1.000000e+000
      outer loop
         vertex 8.561253e+001 -2.645610e+001 0.000000e+000
         vertex 8.132896e+001 -1.983488e+001 0.000000e+000
         vertex 8.148740e+001 -1.802384e+001 0.000000e+000
      endloop
   endfacet
   facet normal 0.000000e+000 0.000000e+000 -1.000000e+000
      outer loop
         vertex 6.125757e+001 -2.159090e+001 0.000000e+000
         vertex 6.202588e+001 -2.323854e+001 0.000000e+000
         vertex 5.874944e+001 -2.833689e+001 0.000000e+000
      endloop
   endfacet
   facet normal 0.000000e+000 0.000000e+000 -1.000000e+000
      outer loop
         vertex 5.874944e+001 -2.833689e+001 0.000000e+000
         vertex 6.202588e+001 -2.323854e+001 0.000000e+000
         vertex 6.306861e+001 -2.472773e+001 0.000000e+000
      endloop
   endfacet
   facet normal 0.000000e+000 0.000000e+000 -1.000000e+000
      outer loop
         vertex 5.874944e+001 -2.833689e+001 0.000000e+000
         vertex 6.306861e+001 -2.472773e+001 0.000000e+000
         vertex 6.016541e+001 -2.903946e+001 0.000000e+000
      endloop
   endfacet
   facet normal 0.000000e+000 0.000000e+000 -1.000000e+000
      outer loop
         vertex 6.016541e+001 -2.903946e+001 0.000000e+000
         vertex 6.306861e+001 -2.472773e+001 0.000000e+000
         vertex 6.435410e+001 -2.601322e+001 0.000000e+000
      endloop
   endfacet
   facet normal 0.000000e+000 0.000000e+000 -1.000000e+000
      outer loop
         vertex 6.016541e+001 -2.903946e+001 0.000000e+000
         vertex 6.435410e+001 -2.601322e+001 0.000000e+000
         vertex 6.587133e+001 -3.241685e+001 0.000000e+000
      endloop
   endfacet
   facet normal 0.000000e+000 0.000000e+000 -1.000000e+000
      outer loop
         vertex 6.587133e+001 -3.241685e+001 0.000000e+000
         vertex 6.435410e+001 -2.601322e+001 0.000000e+000
         vertex 6.584330e+001 -2.705596e+001 0.000000e+000
      endloop
   endfacet
   facet normal 0.000000e+000 0.000000e+000 -1.000000e+000
      outer loop
         vertex 6.587133e+001 -3.241685e+001 0.000000e+000
         vertex 6.584330e+001 -2.705596e+001 0.000000e+000
         vertex 6.749094e+001 -2.782427e+001 0.000000e+000
      endloop
   endfacet
   facet normal 0.000000e+000 0.000000e+000 -1.000000e+000
      outer loop
         vertex 7.286905e+001 -7.752880e+000 0.000000e+000
         vertex 7.105800e+001 -7.594434e+000 0.000000e+000
         vertex 6.899899e+001 3.317740e+000 0.000000e+000
      endloop
   endfacet
   facet normal 0.000000e+000 0.000000e+000 -1.000000e+000
      outer loop
         vertex 6.899899e+001 3.317740e+000 0.000000e+000
         vertex 7.105800e+001 -7.594434e+000 0.000000e+000
         vertex 6.924696e+001 -7.752880e+000 0.000000e+000
      endloop
   endfacet
   facet normal 0.000000e+000 0.000000e+000 -1.000000e+000
      outer loop
         vertex 6.899899e+001 3.317740e+000 0.000000e+000
         vertex 6.924696e+001 -7.752880e+000 0.000000e+000
         vertex 6.423455e+001 6.584447e+000 0.000000e+000
      endloop
   endfacet
   facet normal 0.000000e+000 0.000000e+000 -1.000000e+000
      outer loop
         vertex 6.423455e+001 6.584447e+000 0.000000e+000
         vertex 6.924696e+001 -7.752880e+000 0.000000e+000
         vertex 6.749094e+001 -8.223404e+000 0.000000e+000
      endloop
   endfacet
   facet normal 0.000000e+000 0.000000e+000 -1.000000e+000
      outer loop
         vertex 6.423455e+001 6.584447e+000 0.000000e+000
         vertex 6.749094e+001 -8.223404e+000 0.000000e+000
         vertex 5.952027e+001 9.260522e+000 0.000000e+000
      endloop
   endfacet
   facet normal 0.000000e+000 0.000000e+000 -1.000000e+000
      outer loop
         vertex 5.952027e+001 9.260522e+000 0.000000e+000
         vertex 6.749094e+001 -8.223404e+000 0.000000e+000
         vertex 5.874944e+001 9.612243e+000 0.000000e+000
      endloop
   endfacet
   facet normal 0.000000e+000 0.000000e+000 -1.000000e+000
      outer loop
         vertex 1.058548e+002 -5.105146e+001 0.000000e+000
         vertex 1.059397e+002 -5.008038e+001 0.000000e+000
         vertex 1.109260e+002 -5.168958e+001 0.000000e+000
      endloop
   endfacet
   facet normal 0.000000e+000 0.000000e+000 -1.000000e+000
      outer loop
         vertex 9.103503e+001 -5.340692e+001 0.000000e+000
         vertex 9.484029e+001 -5.105146e+001 0.000000e+000
         vertex 9.509259e+001 -5.199302e+001 0.000000e+000
      endloop
   endfacet
   facet normal 0.000000e+000 0.000000e+000 -1.000000e+000
      outer loop
         vertex 1.046314e+002 -4.648580e+001 0.000000e+000
         vertex 1.039421e+002 -4.579652e+001 0.000000e+000
         vertex 1.049048e+002 -4.088187e+001 0.000000e+000
      endloop
   endfacet
   facet normal 0.000000e+000 0.000000e+000 -1.000000e+000
      outer loop
         vertex 1.039421e+002 -4.579652e+001 0.000000e+000
         vertex 1.031436e+002 -4.523741e+001 0.000000e+000
         vertex 1.049048e+002 -4.088187e+001 0.000000e+000
      endloop
   endfacet
   facet normal 0.000000e+000 0.000000e+000 -1.000000e+000
      outer loop
         vertex 1.049048e+002 -4.088187e+001 0.000000e+000
         vertex 1.031436e+002 -4.523741e+001 0.000000e+000
         vertex 1.022602e+002 -4.482545e+001 0.000000e+000
      endloop
   endfacet
   facet normal 0.000000e+000 0.000000e+000 -1.000000e+000
      outer loop
         vertex 1.049048e+002 -4.088187e+001 0.000000e+000
         vertex 1.022602e+002 -4.482545e+001 0.000000e+000
         vertex 1.012708e+002 -3.491636e+001 0.000000e+000
      endloop
   endfacet
   facet normal 0.000000e+000 0.000000e+000 -1.000000e+000
      outer loop
         vertex 1.166150e+002 -6.286155e+001 0.000000e+000
         vertex 1.051905e+002 -5.287648e+001 0.000000e+000
         vertex 1.109260e+002 -5.168958e+001 0.000000e+000
      endloop
   endfacet
   facet normal 0.000000e+000 0.000000e+000 -1.000000e+000
      outer loop
         vertex 1.109260e+002 -5.168958e+001 0.000000e+000
         vertex 1.051905e+002 -5.287648e+001 0.000000e+000
         vertex 1.056025e+002 -5.199302e+001 0.000000e+000
      endloop
   endfacet
   facet normal 0.000000e+000 0.000000e+000 -1.000000e+000
      outer loop
         vertex 1.109260e+002 -5.168958e+001 0.000000e+000
         vertex 1.056025e+002 -5.199302e+001 0.000000e+000
         vertex 1.058548e+002 -5.105146e+001 0.000000e+000
      endloop
   endfacet
   facet normal 0.000000e+000 0.000000e+000 -1.000000e+000
      outer loop
         vertex 1.059397e+002 -5.008038e+001 0.000000e+000
         vertex 1.058548e+002 -4.910931e+001 0.000000e+000
         vertex 1.109260e+002 -5.168958e+001 0.000000e+000
      endloop
   endfacet
   facet normal 0.000000e+000 0.000000e+000 -1.000000e+000
      outer loop
         vertex 1.109260e+002 -5.168958e+001 0.000000e+000
         vertex 1.058548e+002 -4.910931e+001 0.000000e+000
         vertex 1.056025e+002 -4.816774e+001 0.000000e+000
      endloop
   endfacet
   facet normal 0.000000e+000 0.000000e+000 -1.000000e+000
      outer loop
         vertex 1.109260e+002 -5.168958e+001 0.000000e+000
         vertex 1.056025e+002 -4.816774e+001 0.000000e+000
         vertex 1.049048e+002 -4.088187e+001 0.000000e+000
      endloop
   endfacet
   facet normal 0.000000e+000 0.000000e+000 -1.000000e+000
      outer loop
         vertex 1.049048e+002 -4.088187e+001 0.000000e+000
         vertex 1.056025e+002 -4.816774e+001 0.000000e+000
         vertex 1.051905e+002 -4.728429e+001 0.000000e+000
      endloop
   endfacet
   facet normal 0.000000e+000 0.000000e+000 -1.000000e+000
      outer loop
         vertex 1.049048e+002 -4.088187e+001 0.000000e+000
         vertex 1.051905e+002 -4.728429e+001 0.000000e+000
         vertex 1.046314e+002 -4.648580e+001 0.000000e+000
      endloop
   endfacet
   facet normal 0.000000e+000 0.000000e+000 -1.000000e+000
      outer loop
         vertex 9.937646e+001 -4.457315e+001 0.000000e+000
         vertex 9.843489e+001 -4.482545e+001 0.000000e+000
         vertex 9.547362e+001 -3.631720e+001 0.000000e+000
      endloop
   endfacet
   facet normal 0.000000e+000 0.000000e+000 -1.000000e+000
      outer loop
         vertex 9.755144e+001 -5.492336e+001 0.000000e+000
         vertex 9.843489e+001 -5.533532e+001 0.000000e+000
         vertex 9.772545e+001 -6.060798e+001 0.000000e+000
      endloop
   endfacet
   facet normal 0.000000e+000 0.000000e+000 -1.000000e+000
      outer loop
         vertex 9.772545e+001 -6.060798e+001 0.000000e+000
         vertex 9.843489e+001 -5.533532e+001 0.000000e+000
         vertex 9.937646e+001 -5.558762e+001 0.000000e+000
      endloop
   endfacet
   facet normal 0.000000e+000 0.000000e+000 -1.000000e+000
      outer loop
         vertex 9.772545e+001 -6.060798e+001 0.000000e+000
         vertex 9.937646e+001 -5.558762e+001 0.000000e+000
         vertex 1.044431e+002 -6.855266e+001 0.000000e+000
      endloop
   endfacet
   facet normal 0.000000e+000 0.000000e+000 -1.000000e+000
      outer loop
         vertex 9.937646e+001 -5.558762e+001 0.000000e+000
         vertex 1.003475e+002 -5.567257e+001 0.000000e+000
         vertex 1.044431e+002 -6.855266e+001 0.000000e+000
      endloop
   endfacet
   facet normal 0.000000e+000 0.000000e+000 -1.000000e+000
      outer loop
         vertex 1.044431e+002 -6.855266e+001 0.000000e+000
         vertex 1.003475e+002 -5.567257e+001 0.000000e+000
         vertex 1.013186e+002 -5.558762e+001 0.000000e+000
      endloop
   endfacet
   facet normal 0.000000e+000 0.000000e+000 -1.000000e+000
      outer loop
         vertex 1.044431e+002 -6.855266e+001 0.000000e+000
         vertex 1.013186e+002 -5.558762e+001 0.000000e+000
         vertex 1.111070e+002 -7.718806e+001 0.000000e+000
      endloop
   endfacet
   facet normal 0.000000e+000 0.000000e+000 -1.000000e+000
      outer loop
         vertex 1.022602e+002 -4.482545e+001 0.000000e+000
         vertex 1.013186e+002 -4.457315e+001 0.000000e+000
         vertex 1.012708e+002 -3.491636e+001 0.000000e+000
      endloop
   endfacet
   facet normal 0.000000e+000 0.000000e+000 -1.000000e+000
      outer loop
         vertex 1.012708e+002 -3.491636e+001 0.000000e+000
         vertex 1.013186e+002 -4.457315e+001 0.000000e+000
         vertex 1.003475e+002 -4.448819e+001 0.000000e+000
      endloop
   endfacet
   facet normal 0.000000e+000 0.000000e+000 -1.000000e+000
      outer loop
         vertex 1.012708e+002 -3.491636e+001 0.000000e+000
         vertex 1.003475e+002 -4.448819e+001 0.000000e+000
         vertex 9.582995e+001 -3.491636e+001 0.000000e+000
      endloop
   endfacet
   facet normal 0.000000e+000 0.000000e+000 -1.000000e+000
      outer loop
         vertex 9.582995e+001 -3.491636e+001 0.000000e+000
         vertex 1.003475e+002 -4.448819e+001 0.000000e+000
         vertex 9.937646e+001 -4.457315e+001 0.000000e+000
      endloop
   endfacet
   facet normal 0.000000e+000 0.000000e+000 -1.000000e+000
      outer loop
         vertex 9.582995e+001 -3.491636e+001 0.000000e+000
         vertex 9.937646e+001 -4.457315e+001 0.000000e+000
         vertex 9.582072e+001 -3.502180e+001 0.000000e+000
      endloop
   endfacet
   facet normal 0.000000e+000 0.000000e+000 -1.000000e+000
      outer loop
         vertex 9.582072e+001 -3.502180e+001 0.000000e+000
         vertex 9.937646e+001 -4.457315e+001 0.000000e+000
         vertex 9.547362e+001 -3.631720e+001 0.000000e+000
      endloop
   endfacet
   facet normal 0.000000e+000 0.000000e+000 -1.000000e+000
      outer loop
         vertex 7.105800e+001 -2.845324e+001 0.000000e+000
         vertex 7.286905e+001 -2.829479e+001 0.000000e+000
         vertex 6.951105e+001 -3.491636e+001 0.000000e+000
      endloop
   endfacet
   facet normal 0.000000e+000 0.000000e+000 -1.000000e+000
      outer loop
         vertex 6.951105e+001 -3.491636e+001 0.000000e+000
         vertex 7.286905e+001 -2.829479e+001 0.000000e+000
         vertex 8.065790e+001 -3.491636e+001 0.000000e+000
      endloop
   endfacet
   facet normal 0.000000e+000 0.000000e+000 -1.000000e+000
      outer loop
         vertex 6.951105e+001 -3.491636e+001 0.000000e+000
         vertex 8.065790e+001 -3.491636e+001 0.000000e+000
         vertex 7.182774e+001 -3.650731e+001 0.000000e+000
      endloop
   endfacet
   facet normal 0.000000e+000 0.000000e+000 -1.000000e+000
      outer loop
         vertex 8.439709e+001 -4.034873e+001 0.000000e+000
         vertex 8.444801e+001 -4.698434e+001 0.000000e+000
         vertex 8.329852e+001 -3.957951e+001 0.000000e+000
      endloop
   endfacet
   facet normal 0.000000e+000 0.000000e+000 -1.000000e+000
      outer loop
         vertex 8.329852e+001 -3.957951e+001 0.000000e+000
         vertex 8.444801e+001 -4.698434e+001 0.000000e+000
         vertex 7.802938e+001 -4.135387e+001 0.000000e+000
      endloop
   endfacet
   facet normal 0.000000e+000 0.000000e+000 -1.000000e+000
      outer loop
         vertex 8.329852e+001 -3.957951e+001 0.000000e+000
         vertex 7.802938e+001 -4.135387e+001 0.000000e+000
         vertex 8.235022e+001 -3.863121e+001 0.000000e+000
      endloop
   endfacet
   facet normal 0.000000e+000 0.000000e+000 -1.000000e+000
      outer loop
         vertex 9.509259e+001 -5.199302e+001 0.000000e+000
         vertex 9.550455e+001 -5.287648e+001 0.000000e+000
         vertex 9.103503e+001 -5.340692e+001 0.000000e+000
      endloop
   endfacet
   facet normal 0.000000e+000 0.000000e+000 -1.000000e+000
      outer loop
         vertex 9.103503e+001 -5.340692e+001 0.000000e+000
         vertex 9.550455e+001 -5.287648e+001 0.000000e+000
         vertex 9.606366e+001 -5.367497e+001 0.000000e+000
      endloop
   endfacet
   facet normal 0.000000e+000 0.000000e+000 -1.000000e+000
      outer loop
         vertex 9.103503e+001 -5.340692e+001 0.000000e+000
         vertex 9.606366e+001 -5.367497e+001 0.000000e+000
         vertex 9.772545e+001 -6.060798e+001 0.000000e+000
      endloop
   endfacet
   facet normal 0.000000e+000 0.000000e+000 -1.000000e+000
      outer loop
         vertex 9.772545e+001 -6.060798e+001 0.000000e+000
         vertex 9.606366e+001 -5.367497e+001 0.000000e+000
         vertex 9.675294e+001 -5.436425e+001 0.000000e+000
      endloop
   endfacet
   facet normal 0.000000e+000 0.000000e+000 -1.000000e+000
      outer loop
         vertex 9.772545e+001 -6.060798e+001 0.000000e+000
         vertex 9.675294e+001 -5.436425e+001 0.000000e+000
         vertex 9.755144e+001 -5.492336e+001 0.000000e+000
      endloop
   endfacet
   facet normal 0.000000e+000 0.000000e+000 -1.000000e+000
      outer loop
         vertex 1.292900e+002 -1.044942e+002 0.000000e+000
         vertex 1.286306e+002 -1.041233e+002 0.000000e+000
         vertex 1.239588e+002 -9.626105e+001 0.000000e+000
      endloop
   endfacet
   facet normal 0.000000e+000 0.000000e+000 -1.000000e+000
      outer loop
         vertex 1.013186e+002 -5.558762e+001 0.000000e+000
         vertex 1.022602e+002 -5.533532e+001 0.000000e+000
         vertex 1.111070e+002 -7.718806e+001 0.000000e+000
      endloop
   endfacet
   facet normal 0.000000e+000 0.000000e+000 -1.000000e+000
      outer loop
         vertex 1.111070e+002 -7.718806e+001 0.000000e+000
         vertex 1.022602e+002 -5.533532e+001 0.000000e+000
         vertex 1.031436e+002 -5.492336e+001 0.000000e+000
      endloop
   endfacet
   facet normal 0.000000e+000 0.000000e+000 -1.000000e+000
      outer loop
         vertex 1.111070e+002 -7.718806e+001 0.000000e+000
         vertex 1.031436e+002 -5.492336e+001 0.000000e+000
         vertex 1.176369e+002 -8.644846e+001 0.000000e+000
      endloop
   endfacet
   facet normal 0.000000e+000 0.000000e+000 -1.000000e+000
      outer loop
         vertex 8.065790e+001 -3.491636e+001 0.000000e+000
         vertex 8.066712e+001 -3.502180e+001 0.000000e+000
         vertex 7.182774e+001 -3.650731e+001 0.000000e+000
      endloop
   endfacet
   facet normal 0.000000e+000 0.000000e+000 -1.000000e+000
      outer loop
         vertex 7.182774e+001 -3.650731e+001 0.000000e+000
         vertex 8.066712e+001 -3.502180e+001 0.000000e+000
         vertex 8.101422e+001 -3.631720e+001 0.000000e+000
      endloop
   endfacet
   facet normal 0.000000e+000 0.000000e+000 -1.000000e+000
      outer loop
         vertex 7.182774e+001 -3.650731e+001 0.000000e+000
         vertex 8.101422e+001 -3.631720e+001 0.000000e+000
         vertex 7.802938e+001 -4.135387e+001 0.000000e+000
      endloop
   endfacet
   facet normal 0.000000e+000 0.000000e+000 -1.000000e+000
      outer loop
         vertex 7.802938e+001 -4.135387e+001 0.000000e+000
         vertex 8.101422e+001 -3.631720e+001 0.000000e+000
         vertex 8.158099e+001 -3.753264e+001 0.000000e+000
      endloop
   endfacet
   facet normal 0.000000e+000 0.000000e+000 -1.000000e+000
      outer loop
         vertex 7.802938e+001 -4.135387e+001 0.000000e+000
         vertex 8.158099e+001 -3.753264e+001 0.000000e+000
         vertex 8.235022e+001 -3.863121e+001 0.000000e+000
      endloop
   endfacet
   facet normal 0.000000e+000 0.000000e+000 -1.000000e+000
      outer loop
         vertex 8.439709e+001 -4.034873e+001 0.000000e+000
         vertex 8.561253e+001 -4.091550e+001 0.000000e+000
         vertex 8.444801e+001 -4.698434e+001 0.000000e+000
      endloop
   endfacet
   facet normal 0.000000e+000 0.000000e+000 -1.000000e+000
      outer loop
         vertex 8.444801e+001 -4.698434e+001 0.000000e+000
         vertex 8.561253e+001 -4.091550e+001 0.000000e+000
         vertex 8.690793e+001 -4.126260e+001 0.000000e+000
      endloop
   endfacet
   facet normal 0.000000e+000 0.000000e+000 -1.000000e+000
      outer loop
         vertex 8.444801e+001 -4.698434e+001 0.000000e+000
         vertex 8.690793e+001 -4.126260e+001 0.000000e+000
         vertex 8.824393e+001 -4.137949e+001 0.000000e+000
      endloop
   endfacet
   facet normal 0.000000e+000 0.000000e+000 -1.000000e+000
      outer loop
         vertex 9.509259e+001 -4.816774e+001 0.000000e+000
         vertex 9.484029e+001 -4.910931e+001 0.000000e+000
         vertex 9.087532e+001 -4.091550e+001 0.000000e+000
      endloop
   endfacet
   facet normal 0.000000e+000 0.000000e+000 -1.000000e+000
      outer loop
         vertex 9.087532e+001 -4.091550e+001 0.000000e+000
         vertex 9.484029e+001 -4.910931e+001 0.000000e+000
         vertex 8.957992e+001 -4.126260e+001 0.000000e+000
      endloop
   endfacet
   facet normal 0.000000e+000 0.000000e+000 -1.000000e+000
      outer loop
         vertex 1.254196e+002 -8.262004e+001 0.000000e+000
         vertex 1.031436e+002 -5.492336e+001 0.000000e+000
         vertex 1.215376e+002 -7.343507e+001 0.000000e+000
      endloop
   endfacet
   facet normal 0.000000e+000 0.000000e+000 -1.000000e+000
      outer loop
         vertex 1.215376e+002 -7.343507e+001 0.000000e+000
         vertex 1.031436e+002 -5.492336e+001 0.000000e+000
         vertex 1.039421e+002 -5.436425e+001 0.000000e+000
      endloop
   endfacet
   facet normal 0.000000e+000 0.000000e+000 -1.000000e+000
      outer loop
         vertex 1.215376e+002 -7.343507e+001 0.000000e+000
         vertex 1.039421e+002 -5.436425e+001 0.000000e+000
         vertex 1.166150e+002 -6.286155e+001 0.000000e+000
      endloop
   endfacet
   facet normal 0.000000e+000 0.000000e+000 -1.000000e+000
      outer loop
         vertex 1.166150e+002 -6.286155e+001 0.000000e+000
         vertex 1.039421e+002 -5.436425e+001 0.000000e+000
         vertex 1.046314e+002 -5.367497e+001 0.000000e+000
      endloop
   endfacet
   facet normal 0.000000e+000 0.000000e+000 -1.000000e+000
      outer loop
         vertex 1.166150e+002 -6.286155e+001 0.000000e+000
         vertex 1.046314e+002 -5.367497e+001 0.000000e+000
         vertex 1.051905e+002 -5.287648e+001 0.000000e+000
      endloop
   endfacet
   facet normal 0.000000e+000 0.000000e+000 -1.000000e+000
      outer loop
         vertex 9.484029e+001 -5.105146e+001 0.000000e+000
         vertex 9.103503e+001 -5.340692e+001 0.000000e+000
         vertex 9.475533e+001 -5.008038e+001 0.000000e+000
      endloop
   endfacet
   facet normal 0.000000e+000 0.000000e+000 -1.000000e+000
      outer loop
         vertex 9.475533e+001 -5.008038e+001 0.000000e+000
         vertex 9.103503e+001 -5.340692e+001 0.000000e+000
         vertex 8.444801e+001 -4.698434e+001 0.000000e+000
      endloop
   endfacet
   facet normal 0.000000e+000 0.000000e+000 -1.000000e+000
      outer loop
         vertex 9.475533e+001 -5.008038e+001 0.000000e+000
         vertex 8.444801e+001 -4.698434e+001 0.000000e+000
         vertex 9.484029e+001 -4.910931e+001 0.000000e+000
      endloop
   endfacet
   facet normal 0.000000e+000 0.000000e+000 -1.000000e+000
      outer loop
         vertex 9.484029e+001 -4.910931e+001 0.000000e+000
         vertex 8.444801e+001 -4.698434e+001 0.000000e+000
         vertex 8.824393e+001 -4.137949e+001 0.000000e+000
      endloop
   endfacet
   facet normal 0.000000e+000 0.000000e+000 -1.000000e+000
      outer loop
         vertex 9.484029e+001 -4.910931e+001 0.000000e+000
         vertex 8.824393e+001 -4.137949e+001 0.000000e+000
         vertex 8.957992e+001 -4.126260e+001 0.000000e+000
      endloop
   endfacet
   facet normal 0.000000e+000 0.000000e+000 -1.000000e+000
      outer loop
         vertex 1.239588e+002 -9.626105e+001 0.000000e+000
         vertex 1.312463e+002 -1.033001e+002 0.000000e+000
         vertex 1.311424e+002 -1.038070e+002 0.000000e+000
      endloop
   endfacet
   facet normal 0.000000e+000 0.000000e+000 -1.000000e+000
      outer loop
         vertex 1.254196e+002 -8.262004e+001 0.000000e+000
         vertex 1.281618e+002 -8.990399e+001 0.000000e+000
         vertex 1.031436e+002 -5.492336e+001 0.000000e+000
      endloop
   endfacet
   facet normal 0.000000e+000 0.000000e+000 -1.000000e+000
      outer loop
         vertex 1.031436e+002 -5.492336e+001 0.000000e+000
         vertex 1.281618e+002 -8.990399e+001 0.000000e+000
         vertex 1.301116e+002 -9.604838e+001 0.000000e+000
      endloop
   endfacet
   facet normal 0.000000e+000 0.000000e+000 -1.000000e+000
      outer loop
         vertex 1.031436e+002 -5.492336e+001 0.000000e+000
         vertex 1.301116e+002 -9.604838e+001 0.000000e+000
         vertex 1.310598e+002 -1.001694e+002 0.000000e+000
      endloop
   endfacet
   facet normal 0.000000e+000 0.000000e+000 -1.000000e+000
      outer loop
         vertex 1.239588e+002 -9.626105e+001 0.000000e+000
         vertex 1.176369e+002 -8.644846e+001 0.000000e+000
         vertex 1.312463e+002 -1.033001e+002 0.000000e+000
      endloop
   endfacet
   facet normal 0.000000e+000 0.000000e+000 -1.000000e+000
      outer loop
         vertex 1.312463e+002 -1.033001e+002 0.000000e+000
         vertex 1.176369e+002 -8.644846e+001 0.000000e+000
         vertex 1.031436e+002 -5.492336e+001 0.000000e+000
      endloop
   endfacet
   facet normal 0.000000e+000 0.000000e+000 -1.000000e+000
      outer loop
         vertex 1.312463e+002 -1.033001e+002 0.000000e+000
         vertex 1.031436e+002 -5.492336e+001 0.000000e+000
         vertex 1.312900e+002 -1.023600e+002 0.000000e+000
      endloop
   endfacet
   facet normal 0.000000e+000 0.000000e+000 -1.000000e+000
      outer loop
         vertex 1.312900e+002 -1.023600e+002 0.000000e+000
         vertex 1.031436e+002 -5.492336e+001 0.000000e+000
         vertex 1.310598e+002 -1.001694e+002 0.000000e+000
      endloop
   endfacet
   facet normal 0.000000e+000 0.000000e+000 -1.000000e+000
      outer loop
         vertex 1.311424e+002 -1.038070e+002 0.000000e+000
         vertex 1.310277e+002 -1.041088e+002 0.000000e+000
         vertex 1.239588e+002 -9.626105e+001 0.000000e+000
      endloop
   endfacet
   facet normal 0.000000e+000 0.000000e+000 -1.000000e+000
      outer loop
         vertex 1.239588e+002 -9.626105e+001 0.000000e+000
         vertex 1.310277e+002 -1.041088e+002 0.000000e+000
         vertex 1.309288e+002 -1.042828e+002 0.000000e+000
      endloop
   endfacet
   facet normal 0.000000e+000 0.000000e+000 -1.000000e+000
      outer loop
         vertex 1.239588e+002 -9.626105e+001 0.000000e+000
         vertex 1.309288e+002 -1.042828e+002 0.000000e+000
         vertex 1.292900e+002 -1.044942e+002 0.000000e+000
      endloop
   endfacet
   facet normal 0.000000e+000 0.000000e+000 -1.000000e+000
      outer loop
         vertex 1.292900e+002 -1.044942e+002 0.000000e+000
         vertex 1.309288e+002 -1.042828e+002 0.000000e+000
         vertex 1.308268e+002 -1.044138e+002 0.000000e+000
      endloop
   endfacet
   facet normal 0.000000e+000 0.000000e+000 -1.000000e+000
      outer loop
         vertex 1.292900e+002 -1.044942e+002 0.000000e+000
         vertex 1.308268e+002 -1.044138e+002 0.000000e+000
         vertex 1.296707e+002 -1.046387e+002 0.000000e+000
      endloop
   endfacet
   facet normal 0.000000e+000 0.000000e+000 -1.000000e+000
      outer loop
         vertex 1.296707e+002 -1.046387e+002 0.000000e+000
         vertex 1.308268e+002 -1.044138e+002 0.000000e+000
         vertex 1.299785e+002 -1.047029e+002 0.000000e+000
      endloop
   endfacet
   facet normal 0.000000e+000 0.000000e+000 -1.000000e+000
      outer loop
         vertex 9.209077e+001 -4.034873e+001 0.000000e+000
         vertex 9.318933e+001 -3.957951e+001 0.000000e+000
         vertex 9.755144e+001 -4.523741e+001 0.000000e+000
      endloop
   endfacet
   facet normal 0.000000e+000 0.000000e+000 -1.000000e+000
      outer loop
         vertex 9.755144e+001 -4.523741e+001 0.000000e+000
         vertex 9.318933e+001 -3.957951e+001 0.000000e+000
         vertex 9.413763e+001 -3.863121e+001 0.000000e+000
      endloop
   endfacet
   facet normal 0.000000e+000 0.000000e+000 -1.000000e+000
      outer loop
         vertex 9.755144e+001 -4.523741e+001 0.000000e+000
         vertex 9.413763e+001 -3.863121e+001 0.000000e+000
         vertex 9.843489e+001 -4.482545e+001 0.000000e+000
      endloop
   endfacet
   facet normal 0.000000e+000 0.000000e+000 -1.000000e+000
      outer loop
         vertex 9.843489e+001 -4.482545e+001 0.000000e+000
         vertex 9.413763e+001 -3.863121e+001 0.000000e+000
         vertex 9.490685e+001 -3.753264e+001 0.000000e+000
      endloop
   endfacet
   facet normal 0.000000e+000 0.000000e+000 -1.000000e+000
      outer loop
         vertex 9.843489e+001 -4.482545e+001 0.000000e+000
         vertex 9.490685e+001 -3.753264e+001 0.000000e+000
         vertex 9.547362e+001 -3.631720e+001 0.000000e+000
      endloop
   endfacet
   facet normal 0.000000e+000 0.000000e+000 -1.000000e+000
      outer loop
         vertex 9.755144e+001 -4.523741e+001 0.000000e+000
         vertex 9.675294e+001 -4.579652e+001 0.000000e+000
         vertex 9.209077e+001 -4.034873e+001 0.000000e+000
      endloop
   endfacet
   facet normal 0.000000e+000 0.000000e+000 -1.000000e+000
      outer loop
         vertex 9.209077e+001 -4.034873e+001 0.000000e+000
         vertex 9.675294e+001 -4.579652e+001 0.000000e+000
         vertex 9.606366e+001 -4.648580e+001 0.000000e+000
      endloop
   endfacet
   facet normal 0.000000e+000 0.000000e+000 -1.000000e+000
      outer loop
         vertex 9.209077e+001 -4.034873e+001 0.000000e+000
         vertex 9.606366e+001 -4.648580e+001 0.000000e+000
         vertex 9.087532e+001 -4.091550e+001 0.000000e+000
      endloop
   endfacet
   facet normal 0.000000e+000 0.000000e+000 -1.000000e+000
      outer loop
         vertex 9.087532e+001 -4.091550e+001 0.000000e+000
         vertex 9.606366e+001 -4.648580e+001 0.000000e+000
         vertex 9.550455e+001 -4.728429e+001 0.000000e+000
      endloop
   endfacet
   facet normal 0.000000e+000 0.000000e+000 -1.000000e+000
      outer loop
         vertex 9.087532e+001 -4.091550e+001 0.000000e+000
         vertex 9.550455e+001 -4.728429e+001 0.000000e+000
         vertex 9.509259e+001 -4.816774e+001 0.000000e+000
      endloop
   endfacet
   facet normal 0.000000e+000 0.000000e+000 -1.000000e+000
      outer loop
         vertex 1.299785e+002 -1.047029e+002 0.000000e+000
         vertex 1.308268e+002 -1.044138e+002 0.000000e+000
         vertex 1.301773e+002 -1.047108e+002 0.000000e+000
      endloop
   endfacet
   facet normal 0.000000e+000 0.000000e+000 -1.000000e+000
      outer loop
         vertex 1.301773e+002 -1.047108e+002 0.000000e+000
         vertex 1.308268e+002 -1.044138e+002 0.000000e+000
         vertex 1.307194e+002 -1.045153e+002 0.000000e+000
      endloop
   endfacet
   facet normal 0.000000e+000 0.000000e+000 -1.000000e+000
      outer loop
         vertex 1.301773e+002 -1.047108e+002 0.000000e+000
         vertex 1.307194e+002 -1.045153e+002 0.000000e+000
         vertex 1.303385e+002 -1.046920e+002 0.000000e+000
      endloop
   endfacet
   facet normal 0.000000e+000 0.000000e+000 -1.000000e+000
      outer loop
         vertex 1.303385e+002 -1.046920e+002 0.000000e+000
         vertex 1.307194e+002 -1.045153e+002 0.000000e+000
         vertex 1.306084e+002 -1.045916e+002 0.000000e+000
      endloop
   endfacet
   facet normal 0.000000e+000 0.000000e+000 -1.000000e+000
      outer loop
         vertex 1.303385e+002 -1.046920e+002 0.000000e+000
         vertex 1.306084e+002 -1.045916e+002 0.000000e+000
         vertex 1.304757e+002 -1.046537e+002 0.000000e+000
      endloop
   endfacet
   facet normal 0.000000e+000 0.000000e+000 -1.000000e+000
      outer loop
         vertex 2.547574e+001 -6.359638e+000 0.000000e+000
         vertex 3.444359e+001 4.090414e+000 0.000000e+000
         vertex 3.317395e+001 2.277178e+000 0.000000e+000
      endloop
   endfacet
   facet normal 0.000000e+000 0.000000e+000 -1.000000e+000
      outer loop
         vertex 2.403011e+001 -1.175483e+001 0.000000e+000
         vertex 3.147262e+001 -4.072236e+000 0.000000e+000
         vertex 2.295127e+001 -1.329556e+001 0.000000e+000
      endloop
   endfacet
   facet normal 0.000000e+000 0.000000e+000 -1.000000e+000
      outer loop
         vertex 2.295127e+001 -1.329556e+001 0.000000e+000
         vertex 3.147262e+001 -4.072236e+000 0.000000e+000
         vertex 3.166555e+001 -6.277364e+000 0.000000e+000
      endloop
   endfacet
   facet normal 0.000000e+000 0.000000e+000 -1.000000e+000
      outer loop
         vertex 2.295127e+001 -1.329556e+001 0.000000e+000
         vertex 3.166555e+001 -6.277364e+000 0.000000e+000
         vertex 2.162129e+001 -1.462554e+001 0.000000e+000
      endloop
   endfacet
   facet normal 0.000000e+000 0.000000e+000 -1.000000e+000
      outer loop
         vertex 3.317395e+001 2.277178e+000 0.000000e+000
         vertex 3.223846e+001 2.710192e-001 0.000000e+000
         vertex 2.547574e+001 -6.359638e+000 0.000000e+000
      endloop
   endfacet
   facet normal 0.000000e+000 0.000000e+000 -1.000000e+000
      outer loop
         vertex 2.547574e+001 -6.359638e+000 0.000000e+000
         vertex 3.223846e+001 2.710192e-001 0.000000e+000
         vertex 3.166555e+001 -1.867107e+000 0.000000e+000
      endloop
   endfacet
   facet normal 0.000000e+000 0.000000e+000 -1.000000e+000
      outer loop
         vertex 2.547574e+001 -6.359638e+000 0.000000e+000
         vertex 3.166555e+001 -1.867107e+000 0.000000e+000
         vertex 2.531181e+001 -8.233368e+000 0.000000e+000
      endloop
   endfacet
   facet normal 0.000000e+000 0.000000e+000 -1.000000e+000
      outer loop
         vertex 2.531181e+001 -8.233368e+000 0.000000e+000
         vertex 3.166555e+001 -1.867107e+000 0.000000e+000
         vertex 3.147262e+001 -4.072236e+000 0.000000e+000
      endloop
   endfacet
   facet normal 0.000000e+000 0.000000e+000 -1.000000e+000
      outer loop
         vertex 2.531181e+001 -8.233368e+000 0.000000e+000
         vertex 3.147262e+001 -4.072236e+000 0.000000e+000
         vertex 2.482500e+001 -1.005016e+001 0.000000e+000
      endloop
   endfacet
   facet normal 0.000000e+000 0.000000e+000 -1.000000e+000
      outer loop
         vertex 2.482500e+001 -1.005016e+001 0.000000e+000
         vertex 3.147262e+001 -4.072236e+000 0.000000e+000
         vertex 2.403011e+001 -1.175483e+001 0.000000e+000
      endloop
   endfacet
   facet normal 0.000000e+000 0.000000e+000 -1.000000e+000
      outer loop
         vertex 5.610445e+001 2.710192e-001 0.000000e+000
         vertex 5.516896e+001 2.277178e+000 0.000000e+000
         vertex 5.874944e+001 9.612243e+000 0.000000e+000
      endloop
   endfacet
   facet normal 0.000000e+000 0.000000e+000 -1.000000e+000
      outer loop
         vertex 5.874944e+001 9.612243e+000 0.000000e+000
         vertex 5.516896e+001 2.277178e+000 0.000000e+000
         vertex 5.389932e+001 4.090414e+000 0.000000e+000
      endloop
   endfacet
   facet normal 0.000000e+000 0.000000e+000 -1.000000e+000
      outer loop
         vertex 5.874944e+001 9.612243e+000 0.000000e+000
         vertex 5.389932e+001 4.090414e+000 0.000000e+000
         vertex 5.481940e+001 1.140546e+001 0.000000e+000
      endloop
   endfacet
   facet normal 0.000000e+000 0.000000e+000 -1.000000e+000
      outer loop
         vertex 6.419461e+000 -1.329556e+001 0.000000e+000
         vertex 2.593138e+000 -1.761977e+001 0.000000e+000
         vertex 1.161722e+000 -1.614028e+001 0.000000e+000
      endloop
   endfacet
   facet normal 0.000000e+000 0.000000e+000 -1.000000e+000
      outer loop
         vertex 2.008055e+001 -1.570438e+001 0.000000e+000
         vertex 2.567436e+001 -2.115428e+001 0.000000e+000
         vertex 1.837589e+001 -1.649927e+001 0.000000e+000
      endloop
   endfacet
   facet normal 0.000000e+000 0.000000e+000 -1.000000e+000
      outer loop
         vertex 1.837589e+001 -1.649927e+001 0.000000e+000
         vertex 2.567436e+001 -2.115428e+001 0.000000e+000
         vertex 1.990882e+001 -2.149060e+001 0.000000e+000
      endloop
   endfacet
   facet normal 0.000000e+000 0.000000e+000 -1.000000e+000
      outer loop
         vertex 6.419461e+000 -1.329556e+001 0.000000e+000
         vertex 1.161722e+000 -1.614028e+001 0.000000e+000
         vertex 5.340629e+000 -1.175483e+001 0.000000e+000
      endloop
   endfacet
   facet normal 0.000000e+000 0.000000e+000 -1.000000e+000
      outer loop
         vertex 5.340629e+000 -1.175483e+001 0.000000e+000
         vertex 1.161722e+000 -1.614028e+001 0.000000e+000
         vertex -1.694933e-002 -1.444289e+001 0.000000e+000
      endloop
   endfacet
   facet normal 0.000000e+000 0.000000e+000 -1.000000e+000
      outer loop
         vertex 5.340629e+000 -1.175483e+001 0.000000e+000
         vertex -1.694933e-002 -1.444289e+001 0.000000e+000
         vertex 4.545732e+000 -1.005016e+001 0.000000e+000
      endloop
   endfacet
   facet normal 0.000000e+000 0.000000e+000 -1.000000e+000
      outer loop
         vertex 4.545732e+000 -1.005016e+001 0.000000e+000
         vertex -1.694933e-002 -1.444289e+001 0.000000e+000
         vertex -9.282290e-001 -1.252102e+001 0.000000e+000
      endloop
   endfacet
   facet normal 0.000000e+000 0.000000e+000 -1.000000e+000
      outer loop
         vertex 4.545732e+000 -1.005016e+001 0.000000e+000
         vertex -9.282290e-001 -1.252102e+001 0.000000e+000
         vertex 4.058923e+000 -8.233368e+000 0.000000e+000
      endloop
   endfacet
   facet normal 0.000000e+000 0.000000e+000 -1.000000e+000
      outer loop
         vertex 2.593138e+000 -1.761977e+001 0.000000e+000
         vertex 6.419461e+000 -1.329556e+001 0.000000e+000
         vertex 4.282907e+000 -1.888561e+001 0.000000e+000
      endloop
   endfacet
   facet normal 0.000000e+000 0.000000e+000 -1.000000e+000
      outer loop
         vertex 4.282907e+000 -1.888561e+001 0.000000e+000
         vertex 6.419461e+000 -1.329556e+001 0.000000e+000
         vertex 7.749448e+000 -1.462554e+001 0.000000e+000
      endloop
   endfacet
   facet normal 0.000000e+000 0.000000e+000 -1.000000e+000
      outer loop
         vertex 4.282907e+000 -1.888561e+001 0.000000e+000
         vertex 7.749448e+000 -1.462554e+001 0.000000e+000
         vertex 6.415098e+000 -2.000248e+001 0.000000e+000
      endloop
   endfacet
   facet normal 0.000000e+000 0.000000e+000 -1.000000e+000
      outer loop
         vertex 6.415098e+000 -2.000248e+001 0.000000e+000
         vertex 7.749448e+000 -1.462554e+001 0.000000e+000
         vertex 9.290180e+000 -1.570438e+001 0.000000e+000
      endloop
   endfacet
   facet normal 0.000000e+000 0.000000e+000 -1.000000e+000
      outer loop
         vertex 6.415098e+000 -2.000248e+001 0.000000e+000
         vertex 9.290180e+000 -1.570438e+001 0.000000e+000
         vertex 8.791893e+000 -2.081260e+001 0.000000e+000
      endloop
   endfacet
   facet normal 0.000000e+000 0.000000e+000 -1.000000e+000
      outer loop
         vertex 8.791893e+000 -2.081260e+001 0.000000e+000
         vertex 9.290180e+000 -1.570438e+001 0.000000e+000
         vertex 1.099484e+001 -1.649927e+001 0.000000e+000
      endloop
   endfacet
   facet normal 0.000000e+000 0.000000e+000 -1.000000e+000
      outer loop
         vertex 8.791893e+000 -2.081260e+001 0.000000e+000
         vertex 1.099484e+001 -1.649927e+001 0.000000e+000
         vertex 1.163645e+001 -2.135925e+001 0.000000e+000
      endloop
   endfacet
   facet normal 0.000000e+000 0.000000e+000 -1.000000e+000
      outer loop
         vertex 1.163645e+001 -2.135925e+001 0.000000e+000
         vertex 1.099484e+001 -1.649927e+001 0.000000e+000
         vertex 1.281164e+001 -1.698608e+001 0.000000e+000
      endloop
   endfacet
   facet normal 0.000000e+000 0.000000e+000 -1.000000e+000
      outer loop
         vertex 1.163645e+001 -2.135925e+001 0.000000e+000
         vertex 1.281164e+001 -1.698608e+001 0.000000e+000
         vertex 1.493173e+001 -2.159681e+001 0.000000e+000
      endloop
   endfacet
   facet normal 0.000000e+000 0.000000e+000 -1.000000e+000
      outer loop
         vertex 1.493173e+001 -2.159681e+001 0.000000e+000
         vertex 1.281164e+001 -1.698608e+001 0.000000e+000
         vertex 1.468537e+001 -1.715001e+001 0.000000e+000
      endloop
   endfacet
   facet normal 0.000000e+000 0.000000e+000 -1.000000e+000
      outer loop
         vertex 1.493173e+001 -2.159681e+001 0.000000e+000
         vertex 1.468537e+001 -1.715001e+001 0.000000e+000
         vertex 1.990882e+001 -2.149060e+001 0.000000e+000
      endloop
   endfacet
   facet normal 0.000000e+000 0.000000e+000 -1.000000e+000
      outer loop
         vertex 1.990882e+001 -2.149060e+001 0.000000e+000
         vertex 1.468537e+001 -1.715001e+001 0.000000e+000
         vertex 1.655910e+001 -1.698608e+001 0.000000e+000
      endloop
   endfacet
   facet normal 0.000000e+000 0.000000e+000 -1.000000e+000
      outer loop
         vertex 1.990882e+001 -2.149060e+001 0.000000e+000
         vertex 1.655910e+001 -1.698608e+001 0.000000e+000
         vertex 1.837589e+001 -1.649927e+001 0.000000e+000
      endloop
   endfacet
   facet normal 0.000000e+000 0.000000e+000 -1.000000e+000
      outer loop
         vertex 3.166555e+001 -6.277364e+000 0.000000e+000
         vertex 3.223846e+001 -8.415490e+000 0.000000e+000
         vertex 2.162129e+001 -1.462554e+001 0.000000e+000
      endloop
   endfacet
   facet normal 0.000000e+000 0.000000e+000 -1.000000e+000
      outer loop
         vertex 2.162129e+001 -1.462554e+001 0.000000e+000
         vertex 3.223846e+001 -8.415490e+000 0.000000e+000
         vertex 3.317395e+001 -1.042165e+001 0.000000e+000
      endloop
   endfacet
   facet normal 0.000000e+000 0.000000e+000 -1.000000e+000
      outer loop
         vertex 2.162129e+001 -1.462554e+001 0.000000e+000
         vertex 3.317395e+001 -1.042165e+001 0.000000e+000
         vertex 2.008055e+001 -1.570438e+001 0.000000e+000
      endloop
   endfacet
   facet normal 0.000000e+000 0.000000e+000 -1.000000e+000
      outer loop
         vertex 5.389932e+001 4.090414e+000 0.000000e+000
         vertex 5.233410e+001 5.655631e+000 0.000000e+000
         vertex 5.481940e+001 1.140546e+001 0.000000e+000
      endloop
   endfacet
   facet normal 0.000000e+000 0.000000e+000 -1.000000e+000
      outer loop
         vertex 5.481940e+001 1.140546e+001 0.000000e+000
         vertex 5.233410e+001 5.655631e+000 0.000000e+000
         vertex 5.052087e+001 6.925272e+000 0.000000e+000
      endloop
   endfacet
   facet normal 0.000000e+000 0.000000e+000 -1.000000e+000
      outer loop
         vertex 5.481940e+001 1.140546e+001 0.000000e+000
         vertex 5.052087e+001 6.925272e+000 0.000000e+000
         vertex 5.010038e+001 1.306131e+001 0.000000e+000
      endloop
   endfacet
   facet normal 0.000000e+000 0.000000e+000 -1.000000e+000
      outer loop
         vertex 5.010038e+001 1.306131e+001 0.000000e+000
         vertex 5.052087e+001 6.925272e+000 0.000000e+000
         vertex 4.851471e+001 7.860759e+000 0.000000e+000
      endloop
   endfacet
   facet normal 0.000000e+000 0.000000e+000 -1.000000e+000
      outer loop
         vertex 5.010038e+001 1.306131e+001 0.000000e+000
         vertex 4.851471e+001 7.860759e+000 0.000000e+000
         vertex 4.534012e+001 1.425406e+001 0.000000e+000
      endloop
   endfacet
   facet normal 0.000000e+000 0.000000e+000 -1.000000e+000
      outer loop
         vertex 1.668372e+001 1.198413e+001 0.000000e+000
         vertex 1.468537e+001 4.430736e+000 0.000000e+000
         vertex 1.241119e+001 1.009187e+001 0.000000e+000
      endloop
   endfacet
   facet normal 0.000000e+000 0.000000e+000 -1.000000e+000
      outer loop
         vertex 1.241119e+001 1.009187e+001 0.000000e+000
         vertex 1.468537e+001 4.430736e+000 0.000000e+000
         vertex 1.281164e+001 4.266806e+000 0.000000e+000
      endloop
   endfacet
   facet normal 0.000000e+000 0.000000e+000 -1.000000e+000
      outer loop
         vertex 1.241119e+001 1.009187e+001 0.000000e+000
         vertex 1.281164e+001 4.266806e+000 0.000000e+000
         vertex 8.520015e+000 7.846996e+000 0.000000e+000
      endloop
   endfacet
   facet normal 0.000000e+000 0.000000e+000 -1.000000e+000
      outer loop
         vertex 5.233410e+001 -1.380010e+001 0.000000e+000
         vertex 5.389932e+001 -1.223488e+001 0.000000e+000
         vertex 5.874944e+001 -2.833689e+001 0.000000e+000
      endloop
   endfacet
   facet normal 0.000000e+000 0.000000e+000 -1.000000e+000
      outer loop
         vertex 5.874944e+001 -2.833689e+001 0.000000e+000
         vertex 5.389932e+001 -1.223488e+001 0.000000e+000
         vertex 5.516896e+001 -1.042165e+001 0.000000e+000
      endloop
   endfacet
   facet normal 0.000000e+000 0.000000e+000 -1.000000e+000
      outer loop
         vertex 5.874944e+001 -2.833689e+001 0.000000e+000
         vertex 5.516896e+001 -1.042165e+001 0.000000e+000
         vertex 5.610445e+001 -8.415490e+000 0.000000e+000
      endloop
   endfacet
   facet normal 0.000000e+000 0.000000e+000 -1.000000e+000
      outer loop
         vertex 3.982820e+001 7.860759e+000 0.000000e+000
         vertex 3.576294e+001 1.528860e+001 0.000000e+000
         vertex 4.196632e+001 8.433668e+000 0.000000e+000
      endloop
   endfacet
   facet normal 0.000000e+000 0.000000e+000 -1.000000e+000
      outer loop
         vertex 4.196632e+001 8.433668e+000 0.000000e+000
         vertex 3.576294e+001 1.528860e+001 0.000000e+000
         vertex 4.052694e+001 1.499625e+001 0.000000e+000
      endloop
   endfacet
   facet normal 0.000000e+000 0.000000e+000 -1.000000e+000
      outer loop
         vertex 4.196632e+001 8.433668e+000 0.000000e+000
         vertex 4.052694e+001 1.499625e+001 0.000000e+000
         vertex 4.417145e+001 8.626592e+000 0.000000e+000
      endloop
   endfacet
   facet normal 0.000000e+000 0.000000e+000 -1.000000e+000
      outer loop
         vertex 4.417145e+001 8.626592e+000 0.000000e+000
         vertex 4.052694e+001 1.499625e+001 0.000000e+000
         vertex 4.534012e+001 1.425406e+001 0.000000e+000
      endloop
   endfacet
   facet normal 0.000000e+000 0.000000e+000 -1.000000e+000
      outer loop
         vertex 4.417145e+001 8.626592e+000 0.000000e+000
         vertex 4.534012e+001 1.425406e+001 0.000000e+000
         vertex 4.637658e+001 8.433668e+000 0.000000e+000
      endloop
   endfacet
   facet normal 0.000000e+000 0.000000e+000 -1.000000e+000
      outer loop
         vertex 4.637658e+001 8.433668e+000 0.000000e+000
         vertex 4.534012e+001 1.425406e+001 0.000000e+000
         vertex 4.851471e+001 7.860759e+000 0.000000e+000
      endloop
   endfacet
   facet normal 0.000000e+000 0.000000e+000 -1.000000e+000
      outer loop
         vertex 2.547574e+001 -6.359638e+000 0.000000e+000
         vertex 2.531181e+001 -4.485909e+000 0.000000e+000
         vertex 3.444359e+001 4.090414e+000 0.000000e+000
      endloop
   endfacet
   facet normal 0.000000e+000 0.000000e+000 -1.000000e+000
      outer loop
         vertex 3.444359e+001 4.090414e+000 0.000000e+000
         vertex 2.531181e+001 -4.485909e+000 0.000000e+000
         vertex 2.482500e+001 -2.669113e+000 0.000000e+000
      endloop
   endfacet
   facet normal 0.000000e+000 0.000000e+000 -1.000000e+000
      outer loop
         vertex 3.444359e+001 4.090414e+000 0.000000e+000
         vertex 2.482500e+001 -2.669113e+000 0.000000e+000
         vertex 3.600880e+001 5.655631e+000 0.000000e+000
      endloop
   endfacet
   facet normal 0.000000e+000 0.000000e+000 -1.000000e+000
      outer loop
         vertex 3.600880e+001 5.655631e+000 0.000000e+000
         vertex 2.482500e+001 -2.669113e+000 0.000000e+000
         vertex 2.403011e+001 -9.644513e-001 0.000000e+000
      endloop
   endfacet
   facet normal 0.000000e+000 0.000000e+000 -1.000000e+000
      outer loop
         vertex 3.600880e+001 5.655631e+000 0.000000e+000
         vertex 2.403011e+001 -9.644513e-001 0.000000e+000
         vertex 3.782204e+001 6.925272e+000 0.000000e+000
      endloop
   endfacet
   facet normal 0.000000e+000 0.000000e+000 -1.000000e+000
      outer loop
         vertex 3.782204e+001 6.925272e+000 0.000000e+000
         vertex 2.403011e+001 -9.644513e-001 0.000000e+000
         vertex 2.295127e+001 5.762805e-001 0.000000e+000
      endloop
   endfacet
   facet normal 0.000000e+000 0.000000e+000 -1.000000e+000
      outer loop
         vertex -9.282290e-001 -1.252102e+001 0.000000e+000
         vertex -1.536821e+000 -1.038311e+001 0.000000e+000
         vertex 4.058923e+000 -8.233368e+000 0.000000e+000
      endloop
   endfacet
   facet normal 0.000000e+000 0.000000e+000 -1.000000e+000
      outer loop
         vertex 4.058923e+000 -8.233368e+000 0.000000e+000
         vertex -1.536821e+000 -1.038311e+001 0.000000e+000
         vertex -1.802091e+000 -7.982522e+000 0.000000e+000
      endloop
   endfacet
   facet normal 0.000000e+000 0.000000e+000 -1.000000e+000
      outer loop
         vertex 4.058923e+000 -8.233368e+000 0.000000e+000
         vertex -1.802091e+000 -7.982522e+000 0.000000e+000
         vertex 3.894993e+000 -6.359638e+000 0.000000e+000
      endloop
   endfacet
   facet normal 0.000000e+000 0.000000e+000 -1.000000e+000
      outer loop
         vertex 3.894993e+000 -6.359638e+000 0.000000e+000
         vertex -1.802091e+000 -7.982522e+000 0.000000e+000
         vertex -1.656606e+000 -5.415900e+000 0.000000e+000
      endloop
   endfacet
   facet normal 0.000000e+000 0.000000e+000 -1.000000e+000
      outer loop
         vertex 3.894993e+000 -6.359638e+000 0.000000e+000
         vertex -1.656606e+000 -5.415900e+000 0.000000e+000
         vertex 4.058923e+000 -4.485909e+000 0.000000e+000
      endloop
   endfacet
   facet normal 0.000000e+000 0.000000e+000 -1.000000e+000
      outer loop
         vertex 4.058923e+000 -4.485909e+000 0.000000e+000
         vertex -1.656606e+000 -5.415900e+000 0.000000e+000
         vertex -1.072340e+000 -2.764580e+000 0.000000e+000
      endloop
   endfacet
   facet normal 0.000000e+000 0.000000e+000 -1.000000e+000
      outer loop
         vertex 4.058923e+000 -4.485909e+000 0.000000e+000
         vertex -1.072340e+000 -2.764580e+000 0.000000e+000
         vertex 4.545732e+000 -2.669113e+000 0.000000e+000
      endloop
   endfacet
   facet normal 0.000000e+000 0.000000e+000 -1.000000e+000
      outer loop
         vertex 4.545732e+000 -2.669113e+000 0.000000e+000
         vertex -1.072340e+000 -2.764580e+000 0.000000e+000
         vertex 0.000000e+000 0.000000e+000 0.000000e+000
      endloop
   endfacet
   facet normal 0.000000e+000 0.000000e+000 -1.000000e+000
      outer loop
         vertex 4.545732e+000 -2.669113e+000 0.000000e+000
         vertex 0.000000e+000 0.000000e+000 0.000000e+000
         vertex 5.340629e+000 -9.644513e-001 0.000000e+000
      endloop
   endfacet
   facet normal 0.000000e+000 0.000000e+000 -1.000000e+000
      outer loop
         vertex 5.340629e+000 -9.644513e-001 0.000000e+000
         vertex 0.000000e+000 0.000000e+000 0.000000e+000
         vertex 3.823664e-001 4.982378e-001 0.000000e+000
      endloop
   endfacet
   facet normal 0.000000e+000 0.000000e+000 -1.000000e+000
      outer loop
         vertex 5.340629e+000 -9.644513e-001 0.000000e+000
         vertex 3.823664e-001 4.982378e-001 0.000000e+000
         vertex 6.419461e+000 5.762805e-001 0.000000e+000
      endloop
   endfacet
   facet normal 0.000000e+000 0.000000e+000 -1.000000e+000
      outer loop
         vertex 6.419461e+000 5.762805e-001 0.000000e+000
         vertex 3.823664e-001 4.982378e-001 0.000000e+000
         vertex 2.693135e+000 3.117122e+000 0.000000e+000
      endloop
   endfacet
   facet normal 0.000000e+000 0.000000e+000 -1.000000e+000
      outer loop
         vertex 6.419461e+000 5.762805e-001 0.000000e+000
         vertex 2.693135e+000 3.117122e+000 0.000000e+000
         vertex 7.749448e+000 1.906268e+000 0.000000e+000
      endloop
   endfacet
   facet normal 0.000000e+000 0.000000e+000 -1.000000e+000
      outer loop
         vertex 7.749448e+000 1.906268e+000 0.000000e+000
         vertex 2.693135e+000 3.117122e+000 0.000000e+000
         vertex 5.408195e+000 5.578187e+000 0.000000e+000
      endloop
   endfacet
   facet normal 0.000000e+000 0.000000e+000 -1.000000e+000
      outer loop
         vertex 7.749448e+000 1.906268e+000 0.000000e+000
         vertex 5.408195e+000 5.578187e+000 0.000000e+000
         vertex 9.290180e+000 2.985100e+000 0.000000e+000
      endloop
   endfacet
   facet normal 0.000000e+000 0.000000e+000 -1.000000e+000
      outer loop
         vertex 9.290180e+000 2.985100e+000 0.000000e+000
         vertex 5.408195e+000 5.578187e+000 0.000000e+000
         vertex 8.520015e+000 7.846996e+000 0.000000e+000
      endloop
   endfacet
   facet normal 0.000000e+000 0.000000e+000 -1.000000e+000
      outer loop
         vertex 9.290180e+000 2.985100e+000 0.000000e+000
         vertex 8.520015e+000 7.846996e+000 0.000000e+000
         vertex 1.099484e+001 3.779997e+000 0.000000e+000
      endloop
   endfacet
   facet normal 0.000000e+000 0.000000e+000 -1.000000e+000
      outer loop
         vertex 1.099484e+001 3.779997e+000 0.000000e+000
         vertex 8.520015e+000 7.846996e+000 0.000000e+000
         vertex 1.281164e+001 4.266806e+000 0.000000e+000
      endloop
   endfacet
   facet normal 0.000000e+000 0.000000e+000 -1.000000e+000
      outer loop
         vertex 2.008055e+001 -1.570438e+001 0.000000e+000
         vertex 3.317395e+001 -1.042165e+001 0.000000e+000
         vertex 2.567436e+001 -2.115428e+001 0.000000e+000
      endloop
   endfacet
   facet normal 0.000000e+000 0.000000e+000 -1.000000e+000
      outer loop
         vertex 2.567436e+001 -2.115428e+001 0.000000e+000
         vertex 3.317395e+001 -1.042165e+001 0.000000e+000
         vertex 3.444359e+001 -1.223488e+001 0.000000e+000
      endloop
   endfacet
   facet normal 0.000000e+000 0.000000e+000 -1.000000e+000
      outer loop
         vertex 2.567436e+001 -2.115428e+001 0.000000e+000
         vertex 3.444359e+001 -1.223488e+001 0.000000e+000
         vertex 3.084021e+001 -2.102230e+001 0.000000e+000
      endloop
   endfacet
   facet normal 0.000000e+000 0.000000e+000 -1.000000e+000
      outer loop
         vertex 3.084021e+001 -2.102230e+001 0.000000e+000
         vertex 3.444359e+001 -1.223488e+001 0.000000e+000
         vertex 3.600880e+001 -1.380010e+001 0.000000e+000
      endloop
   endfacet
   facet normal 0.000000e+000 0.000000e+000 -1.000000e+000
      outer loop
         vertex 3.084021e+001 -2.102230e+001 0.000000e+000
         vertex 3.600880e+001 -1.380010e+001 0.000000e+000
         vertex 3.541101e+001 -2.121517e+001 0.000000e+000
      endloop
   endfacet
   facet normal 0.000000e+000 0.000000e+000 -1.000000e+000
      outer loop
         vertex 3.600880e+001 -1.380010e+001 0.000000e+000
         vertex 3.782204e+001 -1.506974e+001 0.000000e+000
         vertex 3.541101e+001 -2.121517e+001 0.000000e+000
      endloop
   endfacet
   facet normal 0.000000e+000 0.000000e+000 -1.000000e+000
      outer loop
         vertex 3.541101e+001 -2.121517e+001 0.000000e+000
         vertex 3.782204e+001 -1.506974e+001 0.000000e+000
         vertex 3.982820e+001 -1.600523e+001 0.000000e+000
      endloop
   endfacet
   facet normal 0.000000e+000 0.000000e+000 -1.000000e+000
      outer loop
         vertex 3.541101e+001 -2.121517e+001 0.000000e+000
         vertex 3.982820e+001 -1.600523e+001 0.000000e+000
         vertex 3.989168e+001 -2.176386e+001 0.000000e+000
      endloop
   endfacet
   facet normal 0.000000e+000 0.000000e+000 -1.000000e+000
      outer loop
         vertex 3.989168e+001 -2.176386e+001 0.000000e+000
         vertex 3.982820e+001 -1.600523e+001 0.000000e+000
         vertex 4.196632e+001 -1.657814e+001 0.000000e+000
      endloop
   endfacet
   facet normal 0.000000e+000 0.000000e+000 -1.000000e+000
      outer loop
         vertex 3.989168e+001 -2.176386e+001 0.000000e+000
         vertex 4.196632e+001 -1.657814e+001 0.000000e+000
         vertex 4.479124e+001 -2.280606e+001 0.000000e+000
      endloop
   endfacet
   facet normal 0.000000e+000 0.000000e+000 -1.000000e+000
      outer loop
         vertex 4.479124e+001 -2.280606e+001 0.000000e+000
         vertex 4.196632e+001 -1.657814e+001 0.000000e+000
         vertex 4.417145e+001 -1.677106e+001 0.000000e+000
      endloop
   endfacet
   facet normal 0.000000e+000 0.000000e+000 -1.000000e+000
      outer loop
         vertex 4.479124e+001 -2.280606e+001 0.000000e+000
         vertex 4.417145e+001 -1.677106e+001 0.000000e+000
         vertex 4.939904e+001 -2.421225e+001 0.000000e+000
      endloop
   endfacet
   facet normal 0.000000e+000 0.000000e+000 -1.000000e+000
      outer loop
         vertex 4.939904e+001 -2.421225e+001 0.000000e+000
         vertex 4.417145e+001 -1.677106e+001 0.000000e+000
         vertex 4.637658e+001 -1.657814e+001 0.000000e+000
      endloop
   endfacet
   facet normal 0.000000e+000 0.000000e+000 -1.000000e+000
      outer loop
         vertex 4.939904e+001 -2.421225e+001 0.000000e+000
         vertex 4.637658e+001 -1.657814e+001 0.000000e+000
         vertex 5.468971e+001 -2.632253e+001 0.000000e+000
      endloop
   endfacet
   facet normal 0.000000e+000 0.000000e+000 -1.000000e+000
      outer loop
         vertex 5.468971e+001 -2.632253e+001 0.000000e+000
         vertex 4.637658e+001 -1.657814e+001 0.000000e+000
         vertex 4.851471e+001 -1.600523e+001 0.000000e+000
      endloop
   endfacet
   facet normal 0.000000e+000 0.000000e+000 -1.000000e+000
      outer loop
         vertex 5.468971e+001 -2.632253e+001 0.000000e+000
         vertex 4.851471e+001 -1.600523e+001 0.000000e+000
         vertex 5.874944e+001 -2.833689e+001 0.000000e+000
      endloop
   endfacet
   facet normal 0.000000e+000 0.000000e+000 -1.000000e+000
      outer loop
         vertex 5.874944e+001 -2.833689e+001 0.000000e+000
         vertex 4.851471e+001 -1.600523e+001 0.000000e+000
         vertex 5.052087e+001 -1.506974e+001 0.000000e+000
      endloop
   endfacet
   facet normal 0.000000e+000 0.000000e+000 -1.000000e+000
      outer loop
         vertex 5.874944e+001 -2.833689e+001 0.000000e+000
         vertex 5.052087e+001 -1.506974e+001 0.000000e+000
         vertex 5.233410e+001 -1.380010e+001 0.000000e+000
      endloop
   endfacet
   facet normal 0.000000e+000 0.000000e+000 -1.000000e+000
      outer loop
         vertex 5.610445e+001 -8.415490e+000 0.000000e+000
         vertex 5.667736e+001 -6.277364e+000 0.000000e+000
         vertex 5.874944e+001 -2.833689e+001 0.000000e+000
      endloop
   endfacet
   facet normal 0.000000e+000 0.000000e+000 -1.000000e+000
      outer loop
         vertex 5.874944e+001 -2.833689e+001 0.000000e+000
         vertex 5.667736e+001 -6.277364e+000 0.000000e+000
         vertex 5.687028e+001 -4.072236e+000 0.000000e+000
      endloop
   endfacet
   facet normal 0.000000e+000 0.000000e+000 -1.000000e+000
      outer loop
         vertex 5.874944e+001 -2.833689e+001 0.000000e+000
         vertex 5.687028e+001 -4.072236e+000 0.000000e+000
         vertex 5.874944e+001 9.612243e+000 0.000000e+000
      endloop
   endfacet
   facet normal 0.000000e+000 0.000000e+000 -1.000000e+000
      outer loop
         vertex 5.874944e+001 9.612243e+000 0.000000e+000
         vertex 5.687028e+001 -4.072236e+000 0.000000e+000
         vertex 5.667736e+001 -1.867107e+000 0.000000e+000
      endloop
   endfacet
   facet normal 0.000000e+000 0.000000e+000 -1.000000e+000
      outer loop
         vertex 5.874944e+001 9.612243e+000 0.000000e+000
         vertex 5.667736e+001 -1.867107e+000 0.000000e+000
         vertex 5.610445e+001 2.710192e-001 0.000000e+000
      endloop
   endfacet
   facet normal 0.000000e+000 0.000000e+000 -1.000000e+000
      outer loop
         vertex 3.982820e+001 7.860759e+000 0.000000e+000
         vertex 3.782204e+001 6.925272e+000 0.000000e+000
         vertex 3.576294e+001 1.528860e+001 0.000000e+000
      endloop
   endfacet
   facet normal 0.000000e+000 0.000000e+000 -1.000000e+000
      outer loop
         vertex 3.576294e+001 1.528860e+001 0.000000e+000
         vertex 3.782204e+001 6.925272e+000 0.000000e+000
         vertex 2.295127e+001 5.762805e-001 0.000000e+000
      endloop
   endfacet
   facet normal 0.000000e+000 0.000000e+000 -1.000000e+000
      outer loop
         vertex 3.576294e+001 1.528860e+001 0.000000e+000
         vertex 2.295127e+001 5.762805e-001 0.000000e+000
         vertex 3.087445e+001 1.513923e+001 0.000000e+000
      endloop
   endfacet
   facet normal 0.000000e+000 0.000000e+000 -1.000000e+000
      outer loop
         vertex 3.087445e+001 1.513923e+001 0.000000e+000
         vertex 2.295127e+001 5.762805e-001 0.000000e+000
         vertex 2.162129e+001 1.906268e+000 0.000000e+000
      endloop
   endfacet
   facet normal 0.000000e+000 0.000000e+000 -1.000000e+000
      outer loop
         vertex 3.087445e+001 1.513923e+001 0.000000e+000
         vertex 2.162129e+001 1.906268e+000 0.000000e+000
         vertex 2.601013e+001 1.453351e+001 0.000000e+000
      endloop
   endfacet
   facet normal 0.000000e+000 0.000000e+000 -1.000000e+000
      outer loop
         vertex 2.601013e+001 1.453351e+001 0.000000e+000
         vertex 2.162129e+001 1.906268e+000 0.000000e+000
         vertex 2.008055e+001 2.985100e+000 0.000000e+000
      endloop
   endfacet
   facet normal 0.000000e+000 0.000000e+000 -1.000000e+000
      outer loop
         vertex 2.601013e+001 1.453351e+001 0.000000e+000
         vertex 2.008055e+001 2.985100e+000 0.000000e+000
         vertex 2.124926e+001 1.347592e+001 0.000000e+000
      endloop
   endfacet
   facet normal 0.000000e+000 0.000000e+000 -1.000000e+000
      outer loop
         vertex 2.124926e+001 1.347592e+001 0.000000e+000
         vertex 2.008055e+001 2.985100e+000 0.000000e+000
         vertex 1.837589e+001 3.779997e+000 0.000000e+000
      endloop
   endfacet
   facet normal 0.000000e+000 0.000000e+000 -1.000000e+000
      outer loop
         vertex 2.124926e+001 1.347592e+001 0.000000e+000
         vertex 1.837589e+001 3.779997e+000 0.000000e+000
         vertex 1.668372e+001 1.198413e+001 0.000000e+000
      endloop
   endfacet
   facet normal 0.000000e+000 0.000000e+000 -1.000000e+000
      outer loop
         vertex 1.668372e+001 1.198413e+001 0.000000e+000
         vertex 1.837589e+001 3.779997e+000 0.000000e+000
         vertex 1.655910e+001 4.266806e+000 0.000000e+000
      endloop
   endfacet
   facet normal 0.000000e+000 0.000000e+000 -1.000000e+000
      outer loop
         vertex 1.668372e+001 1.198413e+001 0.000000e+000
         vertex 1.655910e+001 4.266806e+000 0.000000e+000
         vertex 1.468537e+001 4.430736e+000 0.000000e+000
      endloop
   endfacet
endsolid